P3
# CREATOR: GIMP PNM Filter Version 1.1
30 20
255
134
240
99
165
179
77
191
128
64
192
126
69
172
170
95
136
242
138
130
255
146
130
255
146
132
252
146
155
204
139
189
135
129
193
127
128
170
173
134
134
248
145
130
255
146
130
255
146
130
255
146
129
255
145
128
255
144
128
255
144
128
255
144
128
255
144
128
253
141
148
213
120
181
143
80
177
126
70
154
138
77
100
206
115
67
252
141
79
255
144
183
238
100
194
207
87
214
138
62
219
122
63
214
137
83
193
212
142
183
252
180
184
255
189
184
252
191
197
205
176
217
135
154
219
128
151
207
171
165
186
247
189
183
255
192
175
255
185
158
255
170
140
255
155
132
255
147
129
255
145
127
255
143
127
255
143
138
233
130
170
162
91
176
127
71
160
130
72
122
176
97
74
241
135
87
255
148
135
255
164
239
211
155
248
221
121
251
160
83
252
119
63
252
121
68
250
172
107
249
235
163
249
247
196
249
249
221
250
208
217
251
137
185
252
127
179
251
161
197
245
240
236
219
255
223
176
255
186
143
255
157
130
255
146
127
255
143
127
255
143
131
255
147
144
247
149
172
189
122
184
134
91
173
127
89
154
150
106
109
221
156
116
254
177
171
255
196
222
255
228
220
150
219
239
195
189
251
183
122
254
125
69
254
118
64
254
146
79
254
216
119
254
235
136
254
237
150
253
212
170
253
142
169
254
125
174
247
140
182
209
215
193
153
253
166
131
255
148
127
255
143
129
255
144
143
255
157
172
255
182
198
253
203
212
218
189
206
148
135
192
127
121
184
135
128
156
194
186
166
247
237
220
255
243
246
255
248
253
254
251
181
116
219
190
130
239
200
156
215
205
133
143
205
123
112
205
134
112
202
187
139
200
215
154
198
215
155
199
202
154
215
143
146
218
111
145
199
115
145
155
157
146
109
218
157
102
232
163
112
235
169
144
239
190
192
243
225
222
247
245
225
235
238
203
172
174
191
129
131
189
128
129
176
164
165
178
235
235
231
252
251
254
247
242
255
237
225
255
224
202
144
104
221
147
100
229
149
104
241
146
109
222
137
119
193
133
133
181
131
161
192
131
191
203
130
194
197
128
190
189
139
157
169
162
106
144
161
98
137
149
108
141
106
156
161
86
193
185
106
201
211
132
204
235
145
208
248
143
210
251
130
184
221
134
140
172
146
130
155
154
141
159
166
198
208
215
229
226
246
219
201
253
205
171
255
191
146
255
183
132
129
136
211
140
104
221
144
98
227
146
90
227
144
85
214
136
109
202
129
142
204
127
186
234
125
198
231
106
196
204
87
185
175
122
135
151
157
98
138
161
97
138
158
110
148
0
0
0
130
183
192
123
193
205
107
195
220
86
185
226
89
149
200
96
135
186
102
135
183
114
156
196
137
178
205
162
178
190
181
174
170
202
173
154
226
175
140
245
178
132
160
207
192
160
167
188
164
124
205
166
105
208
169
80
198
173
72
193
176
96
188
176
165
214
150
219
219
107
226
181
95
226
165
110
200
149
160
138
135
199
107
134
0
0
0
0
0
0
0
0
0
141
184
182
94
195
203
94
160
185
105
130
166
107
124
163
114
132
165
122
155
180
126
163
187
128
163
189
130
163
189
135
165
190
148
172
191
175
186
195
240
244
217
224
240
180
209
204
165
199
150
179
199
100
176
203
65
163
206
63
164
200
101
169
156
189
163
128
235
146
107
213
124
141
238
154
204
213
188
0
0
0
0
0
0
0
0
0
0
0
0
0
0
0
172
144
136
185
106
95
186
98
85
182
106
92
173
139
114
160
160
136
147
163
154
136
166
172
131
173
192
129
183
216
126
191
236
128
198
249
255
207
171
253
221
186
241
231
176
224
215
163
210
156
161
208
82
154
202
62
153
190
69
150
169
118
158
155
173
158
125
170
127
123
145
123
0
0
0
0
0
0
0
0
0
0
0
0
0
0
0
0
0
0
0
0
0
239
56
70
244
69
54
249
104
53
248
160
71
240
184
90
227
196
112
208
204
137
188
207
162
163
205
188
142
201
213
130
199
232
255
180
127
255
183
134
255
191
143
250
201
149
237
197
147
217
132
120
198
79
120
191
66
141
181
90
154
175
125
169
175
130
168
180
145
164
188
175
162
180
190
161
123
130
108
0
0
0
202
106
117
230
76
107
244
48
89
251
44
85
254
57
89
255
105
114
255
158
133
255
198
137
255
223
134
254
233
129
250
233
129
238
230
136
214
221
149
182
211
170
255
183
131
255
179
127
255
180
127
255
180
128
245
181
121
216
153
82
207
103
61
201
85
93
195
78
136
195
104
171
200
112
178
200
108
171
197
114
156
195
138
128
193
161
104
0
0
0
208
155
109
238
94
93
252
57
90
254
55
102
255
82
133
255
119
170
255
130
178
255
143
179
255
170
179
255
199
171
255
221
153
255
232
136
253
234
129
246
232
131
255
221
198
255
204
169
255
191
146
253
183
131
228
180
104
200
167
69
212
117
46
222
90
45
230
83
79
219
88
127
202
95
155
194
90
158
191
89
159
191
93
156
195
112
137
0
0
0
222
160
90
241
120
78
247
105
91
251
102
117
252
129
165
254
134
183
255
129
182
255
126
182
255
128
182
255
134
184
255
154
188
255
183
184
255
207
169
255
222
149
255
254
253
255
246
241
255
232
215
241
210
165
200
191
97
189
179
71
205
144
58
235
96
51
245
89
61
228
99
80
200
125
125
190
114
153
187
99
165
187
98
172
191
105
175
0
0
0
212
115
138
227
108
93
234
121
74
233
168
100
232
220
152
239
200
169
246
166
173
251
142
177
254
131
179
255
126
181
255
125
182
255
129
184
255
140
187
255
158
187
255
235
221
255
223
200
253
210
176
226
197
131
189
187
81
189
182
72
204
167
77
230
114
72
230
89
62
223
93
66
205
134
98
192
161
132
197
147
158
204
130
192
204
123
210
0
0
0
207
71
166
212
71
146
217
99
123
216
185
126
216
244
131
220
251
131
224
239
137
229
215
144
237
186
153
243
157
162
249
137
167
252
127
171
253
125
174
253
126
177
255
189
143
255
184
134
251
181
125
214
180
92
189
180
71
183
180
73
186
181
102
198
150
112
213
103
82
218
95
73
217
113
82
221
164
117
240
176
131
244
166
146
232
140
178
0
0
0
213
62
180
212
64
177
208
90
184
204
137
188
206
178
169
212
218
146
216
244
132
218
252
127
219
248
128
222
235
131
227
211
133
232
179
135
238
152
136
242
135
140
255
180
127
255
181
129
245
182
123
194
186
91
160
193
84
136
206
104
137
224
174
148
219
209
184
150
147
211
118
114
235
115
101
250
152
118
255
180
129
255
179
127
252
152
116
0
0
0
229
69
143
219
71
184
215
106
227
212
126
240
209
129
229
207
142
210
210
174
183
213
211
157
216
236
140
217
249
131
218
253
127
219
247
126
221
232
126
225
210
124
255
195
153
248
205
170
209
217
178
126
229
139
84
240
129
76
249
147
107
254
214
146
250
249
201
194
195
242
131
132
253
124
123
255
150
142
255
197
170
255
189
146
255
138
98
255
92
66
250
86
76
240
102
129
229
135
208
221
135
246
216
128
254
215
125
251
213
127
245
213
138
232
213
161
211
216
192
187
219
221
166
220
242
153
222
253
143
221
255
136
237
239
230
191
247
243
142
252
242
88
254
182
62
255
143
68
255
146
110
255
179
190
255
230
242
229
227
255
154
155
255
126
126
255
134
134
255
196
193
255
216
202
255
136
115
255
93
69
255
93
65
254
135
99
250
171
143
242
171
186
231
163
234
222
144
254
217
129
255
215
126
255
215
126
253
216
132
248
218
146
241
222
171
232
229
203
220
234
232
209
170
255
255
134
255
255
126
255
254
108
255
218
83
255
156
99
255
142
122
255
146
153
255
167
200
249
199
237
192
176
251
133
129
254
127
126
254
159
159
255
200
199
255
140
137
255
112
103
255
114
92
255
161
117
255
180
127
255
180
132
252
187
158
245
196
212
235
184
247
225
156
255
219
137
255
216
129
255
216
128
255
216
129
255
218
135
254
223
153
253
